<svg width="306" height="54" viewBox="0 0 306 54" fill="none" xmlns="http://www.w3.org/2000/svg">
<g filter="url(#filter0_d_205_2)">
<path d="M22.24 39.0405C19.2587 39.0405 16.468 38.7112 13.868 38.0525C11.3027 37.3938 9.48267 36.7352 8.408 36.0765C7.368 35.4178 6.67467 34.9498 6.328 34.6725C5.42667 33.9445 4.976 32.9392 4.976 31.6565C4.976 30.6512 5.09733 29.6978 5.34 28.7965C5.79067 27.0978 6.60533 26.2485 7.784 26.2485C8.16533 26.2832 9.37867 26.6818 11.424 27.4445C13.504 28.2072 15.1333 28.5885 16.312 28.5885C18.08 28.5885 18.964 27.8952 18.964 26.5085C18.964 25.6765 18.5307 24.9138 17.664 24.2205C16.7973 23.4925 15.74 22.7992 14.492 22.1405C13.2787 21.4818 12.048 20.7365 10.8 19.9045C9.552 19.0378 8.49467 17.8592 7.628 16.3685C6.76133 14.8432 6.328 13.0752 6.328 11.0645C6.328 7.73649 7.95733 5.13649 11.216 3.26449C14.4747 1.35782 18.6867 0.404486 23.852 0.404486C29.0173 0.404486 33.108 0.941819 36.124 2.01649C39.1747 3.05649 40.7 4.51249 40.7 6.38449C40.7 7.73649 40.388 8.93249 39.764 9.97249C39.14 10.9778 38.4813 11.4805 37.788 11.4805C37.5453 11.4805 36.7307 11.2205 35.344 10.7005C33.992 10.1458 32.7613 9.86849 31.652 9.86849C29.468 9.86849 28.376 10.7178 28.376 12.4165C28.376 13.2485 28.896 14.0112 29.936 14.7045C30.976 15.3978 32.224 16.0738 33.68 16.7325C35.1707 17.3565 36.6613 18.0672 38.152 18.8645C39.6427 19.6618 40.908 20.7538 41.948 22.1405C42.988 23.5272 43.508 25.2085 43.508 27.1845C43.508 29.1605 42.8667 30.9632 41.584 32.5925C40.336 34.2218 38.672 35.4872 36.592 36.3885C32.4667 38.1565 27.6827 39.0405 22.24 39.0405ZM52.5869 38.0005C50.8882 38.0005 49.5882 37.3418 48.6869 36.0245C47.7855 34.7072 47.1615 32.6792 46.8149 29.9405C46.5029 27.2018 46.3469 23.4058 46.3469 18.5525C46.3469 14.4965 46.4509 11.3245 46.6589 9.03649C46.9015 6.74849 47.4389 4.94582 48.2709 3.62849C49.1029 2.27649 50.4029 1.60049 52.1709 1.60049C53.6962 1.60049 54.8402 2.08582 55.6029 3.05649C56.3655 4.02715 56.8509 5.24049 57.0589 6.69649C57.2669 8.15249 57.3709 9.97249 57.3709 12.1565V14.4965C58.0642 14.1498 58.6709 13.9072 59.1909 13.7685C59.7455 13.6298 60.5602 13.5605 61.6349 13.5605C63.9922 13.5605 66.0202 14.1672 67.7189 15.3805C69.4175 16.5592 70.7002 18.1538 71.5669 20.1645C72.4682 22.1752 72.9189 24.4112 72.9189 26.8725C72.9189 30.0618 72.5722 32.6965 71.8789 34.7765C71.2202 36.8218 69.9029 37.8445 67.9269 37.8445C66.5402 37.8445 65.5002 37.5325 64.8069 36.9085C64.1482 36.2845 63.7149 35.4352 63.5069 34.3605C63.3335 33.2858 63.2469 31.8125 63.2469 29.9405C63.2469 27.8952 63.0215 26.3178 62.5709 25.2085C62.1549 24.0992 61.4095 23.5445 60.3349 23.5445C59.2602 23.5445 58.4802 24.1165 57.9949 25.2605C57.5442 26.3698 57.3015 27.9298 57.2669 29.9405C57.2322 31.8125 57.1109 33.3032 56.9029 34.4125C56.7295 35.5218 56.2962 36.4058 55.6029 37.0645C54.9442 37.6885 53.9389 38.0005 52.5869 38.0005ZM90.1453 38.0585C87.3613 38.0972 84.8673 37.5172 82.6633 36.3185C80.498 35.1198 78.7966 33.4765 77.5593 31.3885C76.3606 29.2618 75.7226 26.9032 75.6453 24.3125C75.6066 21.7218 76.206 19.4018 77.4433 17.3525C78.6806 15.3032 80.4013 13.6792 82.6053 12.4805C84.848 11.2818 87.3613 10.6825 90.1453 10.6825C92.852 10.6825 95.288 11.2625 97.4533 12.4225C99.6573 13.5825 101.397 15.2065 102.673 17.2945C103.949 19.3825 104.626 21.7218 104.703 24.3125C104.742 26.8258 104.143 29.1265 102.905 31.2145C101.668 33.2638 99.928 34.9072 97.6853 36.1445C95.4813 37.3818 92.968 38.0198 90.1453 38.0585ZM90.3193 29.5905C91.3633 29.5905 92.272 29.1845 93.0453 28.3725C93.8186 27.5605 94.2053 26.6132 94.2053 25.5305C94.2053 24.4478 93.8186 23.5198 93.0453 22.7465C92.272 21.9345 91.3633 21.5285 90.3193 21.5285C89.2753 21.5285 88.3666 21.9345 87.5933 22.7465C86.82 23.5198 86.4333 24.4478 86.4333 25.5305C86.4333 26.6132 86.82 27.5605 87.5933 28.3725C88.3666 29.1845 89.2753 29.5905 90.3193 29.5905ZM112.745 45.4365C111.046 45.4365 109.815 44.5698 109.053 42.8365C108.29 41.1378 107.822 39.1965 107.649 37.0125C107.51 34.8285 107.441 31.9512 107.441 28.3805C107.441 25.6418 107.545 23.2325 107.753 21.1525C107.995 19.0725 108.533 17.2698 109.365 15.7445C110.197 14.2192 111.462 13.4565 113.161 13.4565C114.929 13.4565 116.211 14.1498 117.009 15.5365C117.806 14.9472 118.794 14.4792 119.973 14.1325C121.186 13.7512 122.451 13.5605 123.769 13.5605C125.987 13.5605 128.033 14.1152 129.905 15.2245C131.777 16.3338 133.267 17.8245 134.377 19.6965C135.486 21.5685 136.041 23.6138 136.041 25.8325C136.041 28.0512 135.486 30.1138 134.377 32.0205C133.267 33.8925 131.777 35.3832 129.905 36.4925C128.033 37.6018 125.987 38.1565 123.769 38.1565C122.417 38.1565 121.151 37.9832 119.973 37.6365C118.794 37.2552 117.789 36.7525 116.957 36.1285C116.957 38.3472 116.887 40.0632 116.749 41.2765C116.61 42.4898 116.229 43.4778 115.605 44.2405C115.015 45.0378 114.062 45.4365 112.745 45.4365ZM123.509 29.5245C124.41 29.5245 125.19 29.1952 125.849 28.5365C126.542 27.8432 126.889 27.0458 126.889 26.1445C126.889 25.2432 126.542 24.4632 125.849 23.8045C125.19 23.1112 124.41 22.7645 123.509 22.7645C122.607 22.7645 121.81 23.1112 121.117 23.8045C120.458 24.4632 120.129 25.2432 120.129 26.1445C120.129 27.0458 120.458 27.8432 121.117 28.5365C121.81 29.1952 122.607 29.5245 123.509 29.5245ZM179.617 39.0405C173.377 39.0405 168.437 37.4632 164.797 34.3085C161.191 31.1192 159.389 26.6298 159.389 20.8405C159.389 17.3045 159.961 14.2018 161.105 11.5325C162.283 8.86315 163.93 6.73115 166.045 5.13649C170.239 1.98182 175.769 0.404486 182.633 0.404486C187.07 0.404486 191.507 1.01115 195.945 2.22449C197.643 2.77915 198.493 4.14849 198.493 6.33249C198.493 9.31382 197.557 10.8045 195.685 10.8045C195.373 10.8045 194.35 10.6658 192.617 10.3885C190.883 10.1112 189.67 9.97249 188.977 9.97249C186.515 9.97249 184.609 10.8392 183.257 12.5725C181.939 14.2712 181.281 16.3165 181.281 18.7085C181.281 21.0658 181.905 23.1458 183.153 24.9485C184.401 26.7512 186.099 27.6872 188.249 27.7565C189.705 27.8258 192.287 27.8605 195.997 27.8605C197.799 27.8605 198.787 28.7098 198.961 30.4085C199.065 31.0325 199.117 31.6738 199.117 32.3325C199.117 32.9565 199.065 33.5978 198.961 34.2565C198.753 35.5045 197.782 36.4232 196.049 37.0125C194.315 37.5672 191.819 38.0352 188.561 38.4165C185.302 38.8325 182.321 39.0405 179.617 39.0405ZM208.282 37.8965C206.549 37.8965 205.249 37.2552 204.382 35.9725C203.516 34.6898 202.926 32.8005 202.614 30.3045C202.337 27.7738 202.198 24.2552 202.198 19.7485C202.198 15.4152 202.302 12.0352 202.51 9.60849C202.753 7.18182 203.308 5.24049 204.174 3.78449C205.076 2.32849 206.462 1.60049 208.334 1.60049C210.206 1.60049 211.576 2.32849 212.442 3.78449C213.344 5.24049 213.898 7.18182 214.106 9.60849C214.349 12.0352 214.47 15.4152 214.47 19.7485C214.47 24.0125 214.28 27.4618 213.898 30.0965C213.552 32.6965 212.928 34.6552 212.026 35.9725C211.125 37.2552 209.877 37.8965 208.282 37.8965ZM232.889 38.0005C229.831 38.0005 227.123 37.4012 224.767 36.2025C222.411 35.0038 220.572 33.3298 219.249 31.1805C217.968 28.9898 217.327 26.5305 217.327 23.8025C217.327 21.1158 217.968 18.6358 219.249 16.3625C220.572 14.0892 222.391 12.2705 224.705 10.9065C227.02 9.54249 229.645 8.86049 232.579 8.86049C235.225 8.86049 237.56 9.39782 239.585 10.4725C241.611 11.5472 243.161 12.9732 244.235 14.7505C245.31 16.4865 245.847 18.3052 245.847 20.2065C245.847 23.3065 244.669 25.5798 242.313 27.0265C239.999 28.4318 237.229 29.1345 234.005 29.1345C231.856 29.1345 230.037 28.8658 228.549 28.3285C229.789 30.3538 231.835 31.3665 234.687 31.3665C235.845 31.3665 237.085 31.2218 238.407 30.9325C238.903 30.8085 239.379 30.7465 239.833 30.7465C240.743 30.7465 241.466 30.9738 242.003 31.4285C242.582 31.8832 242.871 32.5032 242.871 33.2885C242.871 34.5698 242.086 35.6858 240.515 36.6365C238.945 37.5458 236.403 38.0005 232.889 38.0005ZM228.735 20.7645C229.107 21.3432 229.603 21.7772 230.223 22.0665C230.885 22.3145 231.608 22.4385 232.393 22.4385C233.303 22.4385 234.088 22.2318 234.749 21.8185C235.452 21.4052 235.803 20.8678 235.803 20.2065C235.803 19.4625 235.493 18.8218 234.873 18.2845C234.295 17.7472 233.447 17.4785 232.331 17.4785C231.215 17.4785 230.327 17.8298 229.665 18.5325C229.045 19.1938 228.735 19.9378 228.735 20.7645ZM258.882 38.0005C255.658 38.0005 253.013 37.2772 250.946 35.8305C248.879 34.3425 247.846 32.2138 247.846 29.4445C247.846 27.0472 248.9 25.1458 251.008 23.7405C253.116 22.3352 255.741 21.6325 258.882 21.6325C260.039 21.6325 261.114 21.7358 262.106 21.9425C263.139 22.1078 263.842 22.3145 264.214 22.5625C264.214 21.5292 263.78 20.6818 262.912 20.0205C262.044 19.3178 260.721 18.9665 258.944 18.9665C258.159 18.9665 257.518 19.0285 257.022 19.1525C256.526 19.2765 255.989 19.4625 255.41 19.7105C254.831 19.9585 254.294 20.1445 253.798 20.2685C253.343 20.3925 252.723 20.4545 251.938 20.4545C250.615 20.4545 249.582 20.1238 248.838 19.4625C248.094 18.7598 247.722 17.7058 247.722 16.3005C247.722 14.6885 248.301 13.3245 249.458 12.2085C250.657 11.0925 252.145 10.2658 253.922 9.72849C255.699 9.14982 257.477 8.86049 259.254 8.86049C262.767 8.86049 265.702 9.52182 268.058 10.8445C270.455 12.1258 272.212 13.8412 273.328 15.9905C274.485 18.1398 275.064 20.5165 275.064 23.1205C275.064 24.5258 274.94 25.8278 274.692 27.0265C274.485 28.2252 274.196 29.1552 273.824 29.8165C274.403 30.3125 274.837 30.8912 275.126 31.5525C275.457 32.2138 275.622 32.8958 275.622 33.5985C275.622 34.7972 275.209 35.8305 274.382 36.6985C273.597 37.5665 272.543 38.0005 271.22 38.0005C270.228 38.0005 269.422 37.8558 268.802 37.5665C268.182 37.2772 267.521 36.8225 266.818 36.2025C265.785 36.8225 264.648 37.2772 263.408 37.5665C262.209 37.8558 260.701 38.0005 258.882 38.0005ZM260.122 31.7385C260.99 31.7385 261.672 31.5525 262.168 31.1805C262.705 30.8085 262.974 30.3538 262.974 29.8165C262.974 29.2792 262.705 28.8245 262.168 28.4525C261.672 28.0805 260.99 27.8945 260.122 27.8945C259.254 27.8945 258.551 28.0805 258.014 28.4525C257.518 28.8245 257.27 29.2792 257.27 29.8165C257.27 30.3538 257.518 30.8085 258.014 31.1805C258.551 31.5525 259.254 31.7385 260.122 31.7385ZM284.036 38.0005C281.817 38.0005 280.327 36.7005 279.564 34.1005C278.836 31.5005 278.472 27.9125 278.472 23.3365C278.472 21.2565 278.559 19.5232 278.732 18.1365C278.94 16.7152 279.408 15.5192 280.136 14.5485C280.899 13.5432 282.06 13.0405 283.62 13.0405C284.591 13.0405 285.44 13.2658 286.168 13.7165C286.931 14.1672 287.416 14.8085 287.624 15.6405C288.387 14.9472 289.375 14.4272 290.588 14.0805C291.801 13.7338 293.101 13.5605 294.488 13.5605C295.597 13.5605 296.724 13.8378 297.868 14.3925C299.047 14.9472 300.017 15.7098 300.78 16.6805C301.577 17.6165 301.976 18.6392 301.976 19.7485C301.976 20.8578 301.577 21.8458 300.78 22.7125C300.017 23.5445 298.995 23.9605 297.712 23.9605C297.296 23.9605 296.897 23.9085 296.516 23.8045C296.169 23.7005 295.857 23.5965 295.58 23.4925C294.887 23.2152 294.332 23.0765 293.916 23.0765C292.564 23.0765 291.368 23.6138 290.328 24.6885C289.323 25.7285 288.82 27.0805 288.82 28.7445C288.82 30.5818 288.751 32.1072 288.612 33.3205C288.473 34.5338 288.057 35.6258 287.364 36.5965C286.671 37.5325 285.561 38.0005 284.036 38.0005Z" fill="url(#paint0_linear_205_2)"/>
</g>
<defs>
<filter id="filter0_d_205_2" x="0.975998" y="0.404541" width="305" height="53.032" filterUnits="userSpaceOnUse" color-interpolation-filters="sRGB">
<feFlood flood-opacity="0" result="BackgroundImageFix"/>
<feColorMatrix in="SourceAlpha" type="matrix" values="0 0 0 0 0 0 0 0 0 0 0 0 0 0 0 0 0 0 127 0" result="hardAlpha"/>
<feOffset dy="4"/>
<feGaussianBlur stdDeviation="2"/>
<feComposite in2="hardAlpha" operator="out"/>
<feColorMatrix type="matrix" values="0 0 0 0 0 0 0 0 0 0 0 0 0 0 0 0 0 0 0.25 0"/>
<feBlend mode="normal" in2="BackgroundImageFix" result="effect1_dropShadow_205_2"/>
<feBlend mode="normal" in="SourceGraphic" in2="effect1_dropShadow_205_2" result="shape"/>
</filter>
<linearGradient id="paint0_linear_205_2" x1="178" y1="114" x2="178" y2="-127" gradientUnits="userSpaceOnUse">
<stop stop-color="#15E9F7"/>
<stop offset="1" stop-color="#00FFF0"/>
</linearGradient>
</defs>
</svg>
